<svg width="32" height="32" viewBox="0 0 32 32" fill="none" xmlns="http://www.w3.org/2000/svg">
  <!-- Background circle with gradient -->
  <defs>
    <linearGradient id="bgGradient" x1="0%" y1="0%" x2="100%" y2="100%">
      <stop offset="0%" style="stop-color:#ec4899;stop-opacity:1" />
      <stop offset="50%" style="stop-color:#8b5cf6;stop-opacity:1" />
      <stop offset="100%" style="stop-color:#06b6d4;stop-opacity:1" />
    </linearGradient>
    <linearGradient id="speechGradient" x1="0%" y1="0%" x2="100%" y2="100%">
      <stop offset="0%" style="stop-color:#ffffff;stop-opacity:0.9" />
      <stop offset="100%" style="stop-color:#f3f4f6;stop-opacity:0.8" />
    </linearGradient>
  </defs>
  
  <!-- Main background -->
  <circle cx="16" cy="16" r="15" fill="url(#bgGradient)" stroke="#1f2937" stroke-width="2"/>
  
  <!-- Speech bubble -->
  <path d="M8 10 C8 8, 10 6, 12 6 L20 6 C22 6, 24 8, 24 10 L24 16 C24 18, 22 20, 20 20 L14 20 L10 24 L10 20 C8 20, 8 18, 8 16 Z" 
        fill="url(#speechGradient)" 
        stroke="#374151" 
        stroke-width="1"/>
  
  <!-- Question mark inside speech bubble -->
  <text x="16" y="17" font-family="Arial, sans-serif" font-size="10" font-weight="bold" text-anchor="middle" fill="#1f2937">?</text>
  
  <!-- Small dots for mystery/secrets -->
  <circle cx="12" cy="13" r="0.8" fill="#6b7280" opacity="0.6"/>
  <circle cx="16" cy="11" r="0.8" fill="#6b7280" opacity="0.6"/>
  <circle cx="20" cy="13" r="0.8" fill="#6b7280" opacity="0.6"/>
</svg>